<?xml version="1.0" encoding="UTF-8" standalone="no"?>
<!DOCTYPE svg PUBLIC "-//W3C//DTD SVG 1.1//EN"
 "http://www.w3.org/Graphics/SVG/1.1/DTD/svg11.dtd">
<!-- Generated by graphviz version 2.47.3 (20210619.1520)
 -->
<!-- Title: dependencies Pages: 1 -->
<svg width="2948pt" height="247pt"
 viewBox="0.00 0.00 2948.00 246.80" xmlns="http://www.w3.org/2000/svg" xmlns:xlink="http://www.w3.org/1999/xlink">
<g id="graph0" class="graph" transform="scale(1 1) rotate(0) translate(4 242.8)">
<title>dependencies</title>
<polygon fill="white" stroke="transparent" points="-4,4 -4,-242.8 2944,-242.8 2944,4 -4,4"/>
<text text-anchor="middle" x="1470" y="-8.2" font-family="sans-serif" font-size="14.00">dependencies</text>
<g id="clust1" class="cluster">
<title>cluster_AppModule</title>
<polygon fill="none" stroke="black" stroke-dasharray="1,5" points="8,-32.8 8,-230.8 2932,-230.8 2932,-32.8 8,-32.8"/>
</g>
<g id="clust23" class="cluster">
<title>cluster_AppModule_bootstrap</title>
<polygon fill="none" stroke="black" points="1478,-170.8 1478,-222.8 1602,-222.8 1602,-170.8 1478,-170.8"/>
</g>
<g id="clust21" class="cluster">
<title>cluster_AppModule_imports</title>
<polygon fill="none" stroke="black" points="2780,-40.8 2780,-92.8 2924,-92.8 2924,-40.8 2780,-40.8"/>
</g>
<g id="clust2" class="cluster">
<title>cluster_AppModule_declarations</title>
<polygon fill="none" stroke="black" points="16,-40.8 16,-92.8 2772,-92.8 2772,-40.8 16,-40.8"/>
</g>
<!-- AboutComponent -->
<g id="node1" class="node">
<title>AboutComponent</title>
<polygon fill="#ffffb3" stroke="black" points="2764.33,-84.8 2647.67,-84.8 2647.67,-48.8 2764.33,-48.8 2764.33,-84.8"/>
<text text-anchor="middle" x="2706" y="-62.6" font-family="Times,serif" font-size="14.00">AboutComponent</text>
</g>
<!-- AppModule -->
<g id="node19" class="node">
<title>AppModule</title>
<polygon fill="#8dd3c7" stroke="black" points="1581.66,-149.8 1578.66,-153.8 1557.66,-153.8 1554.66,-149.8 1498.34,-149.8 1498.34,-113.8 1581.66,-113.8 1581.66,-149.8"/>
<text text-anchor="middle" x="1540" y="-127.6" font-family="Times,serif" font-size="14.00">AppModule</text>
</g>
<!-- AboutComponent&#45;&gt;AppModule -->
<g id="edge1" class="edge">
<title>AboutComponent&#45;&gt;AppModule</title>
<path fill="none" stroke="black" d="M2706,-84.81C2706,-107.29 2706,-142.8 2706,-142.8 2706,-142.8 1591.84,-142.8 1591.84,-142.8"/>
<polygon fill="black" stroke="black" points="1591.84,-139.3 1581.84,-142.8 1591.84,-146.3 1591.84,-139.3"/>
</g>
<!-- ActorDetailsComponent -->
<g id="node2" class="node">
<title>ActorDetailsComponent</title>
<polygon fill="#ffffb3" stroke="black" points="2629.36,-84.8 2476.64,-84.8 2476.64,-48.8 2629.36,-48.8 2629.36,-84.8"/>
<text text-anchor="middle" x="2553" y="-62.6" font-family="Times,serif" font-size="14.00">ActorDetailsComponent</text>
</g>
<!-- ActorDetailsComponent&#45;&gt;AppModule -->
<g id="edge2" class="edge">
<title>ActorDetailsComponent&#45;&gt;AppModule</title>
<path fill="none" stroke="black" d="M2553,-84.84C2553,-106.46 2553,-139.8 2553,-139.8 2553,-139.8 1591.92,-139.8 1591.92,-139.8"/>
<polygon fill="black" stroke="black" points="1591.92,-136.3 1581.92,-139.8 1591.92,-143.3 1591.92,-136.3"/>
</g>
<!-- AppComponent -->
<g id="node3" class="node">
<title>AppComponent</title>
<polygon fill="#ffffb3" stroke="black" points="2458.94,-84.8 2353.06,-84.8 2353.06,-48.8 2458.94,-48.8 2458.94,-84.8"/>
<text text-anchor="middle" x="2406" y="-62.6" font-family="Times,serif" font-size="14.00">AppComponent</text>
</g>
<!-- AppComponent&#45;&gt;AppModule -->
<g id="edge3" class="edge">
<title>AppComponent&#45;&gt;AppModule</title>
<path fill="none" stroke="black" d="M2406,-84.93C2406,-105.37 2406,-135.8 2406,-135.8 2406,-135.8 1591.77,-135.8 1591.77,-135.8"/>
<polygon fill="black" stroke="black" points="1591.77,-132.3 1581.77,-135.8 1591.77,-139.3 1591.77,-132.3"/>
</g>
<!-- ContactComponent -->
<g id="node4" class="node">
<title>ContactComponent</title>
<polygon fill="#ffffb3" stroke="black" points="2335.38,-84.8 2210.62,-84.8 2210.62,-48.8 2335.38,-48.8 2335.38,-84.8"/>
<text text-anchor="middle" x="2273" y="-62.6" font-family="Times,serif" font-size="14.00">ContactComponent</text>
</g>
<!-- ContactComponent&#45;&gt;AppModule -->
<g id="edge4" class="edge">
<title>ContactComponent&#45;&gt;AppModule</title>
<path fill="none" stroke="black" d="M2273,-84.91C2273,-104.14 2273,-131.8 2273,-131.8 2273,-131.8 1591.78,-131.8 1591.78,-131.8"/>
<polygon fill="black" stroke="black" points="1591.78,-128.3 1581.78,-131.8 1591.78,-135.3 1591.78,-128.3"/>
</g>
<!-- FooterComponent -->
<g id="node5" class="node">
<title>FooterComponent</title>
<polygon fill="#ffffb3" stroke="black" points="2192.88,-84.8 2075.12,-84.8 2075.12,-48.8 2192.88,-48.8 2192.88,-84.8"/>
<text text-anchor="middle" x="2134" y="-62.6" font-family="Times,serif" font-size="14.00">FooterComponent</text>
</g>
<!-- FooterComponent&#45;&gt;AppModule -->
<g id="edge5" class="edge">
<title>FooterComponent&#45;&gt;AppModule</title>
<path fill="none" stroke="black" d="M2134,-85.07C2134,-103.36 2134,-128.8 2134,-128.8 2134,-128.8 1591.77,-128.8 1591.77,-128.8"/>
<polygon fill="black" stroke="black" points="1591.77,-125.3 1581.77,-128.8 1591.77,-132.3 1591.77,-125.3"/>
</g>
<!-- HomeComponent -->
<g id="node6" class="node">
<title>HomeComponent</title>
<polygon fill="#ffffb3" stroke="black" points="2056.55,-84.8 1941.45,-84.8 1941.45,-48.8 2056.55,-48.8 2056.55,-84.8"/>
<text text-anchor="middle" x="1999" y="-62.6" font-family="Times,serif" font-size="14.00">HomeComponent</text>
</g>
<!-- HomeComponent&#45;&gt;AppModule -->
<g id="edge6" class="edge">
<title>HomeComponent&#45;&gt;AppModule</title>
<path fill="none" stroke="black" d="M1999,-84.83C1999,-101.86 1999,-124.8 1999,-124.8 1999,-124.8 1591.95,-124.8 1591.95,-124.8"/>
<polygon fill="black" stroke="black" points="1591.95,-121.3 1581.95,-124.8 1591.95,-128.3 1591.95,-121.3"/>
</g>
<!-- MoviesComponent -->
<g id="node7" class="node">
<title>MoviesComponent</title>
<polygon fill="#ffffb3" stroke="black" points="1923.83,-84.8 1800.17,-84.8 1800.17,-48.8 1923.83,-48.8 1923.83,-84.8"/>
<text text-anchor="middle" x="1862" y="-62.6" font-family="Times,serif" font-size="14.00">MoviesComponent</text>
</g>
<!-- MoviesComponent&#45;&gt;AppModule -->
<g id="edge7" class="edge">
<title>MoviesComponent&#45;&gt;AppModule</title>
<path fill="none" stroke="black" d="M1862,-84.81C1862,-100.85 1862,-121.8 1862,-121.8 1862,-121.8 1591.77,-121.8 1591.77,-121.8"/>
<polygon fill="black" stroke="black" points="1591.77,-118.3 1581.77,-121.8 1591.77,-125.3 1591.77,-118.3"/>
</g>
<!-- MoviesDetailsComponent -->
<g id="node8" class="node">
<title>MoviesDetailsComponent</title>
<polygon fill="#ffffb3" stroke="black" points="1782.48,-84.8 1619.52,-84.8 1619.52,-48.8 1782.48,-48.8 1782.48,-84.8"/>
<text text-anchor="middle" x="1701" y="-62.6" font-family="Times,serif" font-size="14.00">MoviesDetailsComponent</text>
</g>
<!-- MoviesDetailsComponent&#45;&gt;AppModule -->
<g id="edge8" class="edge">
<title>MoviesDetailsComponent&#45;&gt;AppModule</title>
<path fill="none" stroke="black" d="M1701,-84.92C1701,-99.58 1701,-117.8 1701,-117.8 1701,-117.8 1591.88,-117.8 1591.88,-117.8"/>
<polygon fill="black" stroke="black" points="1591.88,-114.3 1581.88,-117.8 1591.88,-121.3 1591.88,-114.3"/>
</g>
<!-- NavbarComponent -->
<g id="node9" class="node">
<title>NavbarComponent</title>
<polygon fill="#ffffb3" stroke="black" points="1601.03,-84.8 1478.97,-84.8 1478.97,-48.8 1601.03,-48.8 1601.03,-84.8"/>
<text text-anchor="middle" x="1540" y="-62.6" font-family="Times,serif" font-size="14.00">NavbarComponent</text>
</g>
<!-- NavbarComponent&#45;&gt;AppModule -->
<g id="edge9" class="edge">
<title>NavbarComponent&#45;&gt;AppModule</title>
<path fill="none" stroke="black" d="M1540,-84.91C1540,-84.91 1540,-103.79 1540,-103.79"/>
<polygon fill="black" stroke="black" points="1536.5,-103.79 1540,-113.79 1543.5,-103.79 1536.5,-103.79"/>
</g>
<!-- NotFoundComponent -->
<g id="node10" class="node">
<title>NotFoundComponent</title>
<polygon fill="#ffffb3" stroke="black" points="1461.11,-84.8 1322.89,-84.8 1322.89,-48.8 1461.11,-48.8 1461.11,-84.8"/>
<text text-anchor="middle" x="1392" y="-62.6" font-family="Times,serif" font-size="14.00">NotFoundComponent</text>
</g>
<!-- NotFoundComponent&#45;&gt;AppModule -->
<g id="edge10" class="edge">
<title>NotFoundComponent&#45;&gt;AppModule</title>
<path fill="none" stroke="black" d="M1392,-84.92C1392,-99.58 1392,-117.8 1392,-117.8 1392,-117.8 1487.99,-117.8 1487.99,-117.8"/>
<polygon fill="black" stroke="black" points="1487.99,-121.3 1497.99,-117.8 1487.98,-114.3 1487.99,-121.3"/>
</g>
<!-- ProfileComponent -->
<g id="node11" class="node">
<title>ProfileComponent</title>
<polygon fill="#ffffb3" stroke="black" points="1304.93,-84.8 1185.07,-84.8 1185.07,-48.8 1304.93,-48.8 1304.93,-84.8"/>
<text text-anchor="middle" x="1245" y="-62.6" font-family="Times,serif" font-size="14.00">ProfileComponent</text>
</g>
<!-- ProfileComponent&#45;&gt;AppModule -->
<g id="edge11" class="edge">
<title>ProfileComponent&#45;&gt;AppModule</title>
<path fill="none" stroke="black" d="M1245,-84.81C1245,-100.85 1245,-121.8 1245,-121.8 1245,-121.8 1488.05,-121.8 1488.05,-121.8"/>
<polygon fill="black" stroke="black" points="1488.05,-125.3 1498.05,-121.8 1488.05,-118.3 1488.05,-125.3"/>
</g>
<!-- ScrollTopBtnComponent -->
<g id="node12" class="node">
<title>ScrollTopBtnComponent</title>
<polygon fill="#ffffb3" stroke="black" points="1167.55,-84.8 1010.45,-84.8 1010.45,-48.8 1167.55,-48.8 1167.55,-84.8"/>
<text text-anchor="middle" x="1089" y="-62.6" font-family="Times,serif" font-size="14.00">ScrollTopBtnComponent</text>
</g>
<!-- ScrollTopBtnComponent&#45;&gt;AppModule -->
<g id="edge12" class="edge">
<title>ScrollTopBtnComponent&#45;&gt;AppModule</title>
<path fill="none" stroke="black" d="M1089,-84.83C1089,-101.86 1089,-124.8 1089,-124.8 1089,-124.8 1487.98,-124.8 1487.98,-124.8"/>
<polygon fill="black" stroke="black" points="1487.98,-128.3 1497.98,-124.8 1487.98,-121.3 1487.98,-128.3"/>
</g>
<!-- SignInComponent -->
<g id="node13" class="node">
<title>SignInComponent</title>
<polygon fill="#ffffb3" stroke="black" points="992.17,-84.8 873.83,-84.8 873.83,-48.8 992.17,-48.8 992.17,-84.8"/>
<text text-anchor="middle" x="933" y="-62.6" font-family="Times,serif" font-size="14.00">SignInComponent</text>
</g>
<!-- SignInComponent&#45;&gt;AppModule -->
<g id="edge13" class="edge">
<title>SignInComponent&#45;&gt;AppModule</title>
<path fill="none" stroke="black" d="M933,-85.07C933,-103.36 933,-128.8 933,-128.8 933,-128.8 1488.28,-128.8 1488.28,-128.8"/>
<polygon fill="black" stroke="black" points="1488.28,-132.3 1498.28,-128.8 1488.28,-125.3 1488.28,-132.3"/>
</g>
<!-- SignUpComponent -->
<g id="node14" class="node">
<title>SignUpComponent</title>
<polygon fill="#ffffb3" stroke="black" points="856.11,-84.8 731.89,-84.8 731.89,-48.8 856.11,-48.8 856.11,-84.8"/>
<text text-anchor="middle" x="794" y="-62.6" font-family="Times,serif" font-size="14.00">SignUpComponent</text>
</g>
<!-- SignUpComponent&#45;&gt;AppModule -->
<g id="edge14" class="edge">
<title>SignUpComponent&#45;&gt;AppModule</title>
<path fill="none" stroke="black" d="M794,-84.91C794,-104.14 794,-131.8 794,-131.8 794,-131.8 1488.29,-131.8 1488.29,-131.8"/>
<polygon fill="black" stroke="black" points="1488.29,-135.3 1498.29,-131.8 1488.29,-128.3 1488.29,-135.3"/>
</g>
<!-- SmallPlansComponent -->
<g id="node15" class="node">
<title>SmallPlansComponent</title>
<polygon fill="#ffffb3" stroke="black" points="714.33,-84.8 569.67,-84.8 569.67,-48.8 714.33,-48.8 714.33,-84.8"/>
<text text-anchor="middle" x="642" y="-62.6" font-family="Times,serif" font-size="14.00">SmallPlansComponent</text>
</g>
<!-- SmallPlansComponent&#45;&gt;AppModule -->
<g id="edge15" class="edge">
<title>SmallPlansComponent&#45;&gt;AppModule</title>
<path fill="none" stroke="black" d="M642,-84.93C642,-105.37 642,-135.8 642,-135.8 642,-135.8 1488.19,-135.8 1488.19,-135.8"/>
<polygon fill="black" stroke="black" points="1488.19,-139.3 1498.19,-135.8 1488.19,-132.3 1488.19,-139.3"/>
</g>
<!-- TrendingActorsComponent -->
<g id="node16" class="node">
<title>TrendingActorsComponent</title>
<polygon fill="#ffffb3" stroke="black" points="551.97,-84.8 382.03,-84.8 382.03,-48.8 551.97,-48.8 551.97,-84.8"/>
<text text-anchor="middle" x="467" y="-62.6" font-family="Times,serif" font-size="14.00">TrendingActorsComponent</text>
</g>
<!-- TrendingActorsComponent&#45;&gt;AppModule -->
<g id="edge16" class="edge">
<title>TrendingActorsComponent&#45;&gt;AppModule</title>
<path fill="none" stroke="black" d="M467,-84.84C467,-106.46 467,-139.8 467,-139.8 467,-139.8 1488.27,-139.8 1488.27,-139.8"/>
<polygon fill="black" stroke="black" points="1488.27,-143.3 1498.27,-139.8 1488.27,-136.3 1488.27,-143.3"/>
</g>
<!-- TrendingMoviesComponent -->
<g id="node17" class="node">
<title>TrendingMoviesComponent</title>
<polygon fill="#ffffb3" stroke="black" points="364.15,-84.8 189.85,-84.8 189.85,-48.8 364.15,-48.8 364.15,-84.8"/>
<text text-anchor="middle" x="277" y="-62.6" font-family="Times,serif" font-size="14.00">TrendingMoviesComponent</text>
</g>
<!-- TrendingMoviesComponent&#45;&gt;AppModule -->
<g id="edge17" class="edge">
<title>TrendingMoviesComponent&#45;&gt;AppModule</title>
<path fill="none" stroke="black" d="M277,-84.81C277,-107.29 277,-142.8 277,-142.8 277,-142.8 1488.34,-142.8 1488.34,-142.8"/>
<polygon fill="black" stroke="black" points="1488.34,-146.3 1498.34,-142.8 1488.34,-139.3 1488.34,-146.3"/>
</g>
<!-- TrendingTvComponent -->
<g id="node18" class="node">
<title>TrendingTvComponent</title>
<polygon fill="#ffffb3" stroke="black" points="172.2,-84.8 23.8,-84.8 23.8,-48.8 172.2,-48.8 172.2,-84.8"/>
<text text-anchor="middle" x="98" y="-62.6" font-family="Times,serif" font-size="14.00">TrendingTvComponent</text>
</g>
<!-- TrendingTvComponent&#45;&gt;AppModule -->
<g id="edge18" class="edge">
<title>TrendingTvComponent&#45;&gt;AppModule</title>
<path fill="none" stroke="black" d="M98,-84.95C98,-108.56 98,-146.8 98,-146.8 98,-146.8 1488.01,-146.8 1488.01,-146.8"/>
<polygon fill="black" stroke="black" points="1488.01,-150.3 1498.01,-146.8 1488.01,-143.3 1488.01,-150.3"/>
</g>
<!-- AppComponent  -->
<g id="node21" class="node">
<title>AppComponent </title>
<polygon fill="#80b1d3" stroke="black" points="1594.44,-214.8 1485.56,-214.8 1485.56,-178.8 1594.44,-178.8 1594.44,-214.8"/>
<text text-anchor="middle" x="1540" y="-192.6" font-family="Times,serif" font-size="14.00">AppComponent </text>
</g>
<!-- AppModule&#45;&gt;AppComponent  -->
<g id="edge20" class="edge">
<title>AppModule&#45;&gt;AppComponent </title>
<path fill="none" stroke="black" stroke-dasharray="1,5" d="M1540,-149.91C1540,-149.91 1540,-168.79 1540,-168.79"/>
<polygon fill="black" stroke="black" points="1536.5,-168.79 1540,-178.79 1543.5,-168.79 1536.5,-168.79"/>
</g>
<!-- AppRoutingModule -->
<g id="node20" class="node">
<title>AppRoutingModule</title>
<polygon fill="#8dd3c7" stroke="black" points="2916.27,-84.8 2913.27,-88.8 2892.27,-88.8 2889.27,-84.8 2787.73,-84.8 2787.73,-48.8 2916.27,-48.8 2916.27,-84.8"/>
<text text-anchor="middle" x="2852" y="-62.6" font-family="Times,serif" font-size="14.00">AppRoutingModule</text>
</g>
<!-- AppRoutingModule&#45;&gt;AppModule -->
<g id="edge19" class="edge">
<title>AppRoutingModule&#45;&gt;AppModule</title>
<path fill="none" stroke="black" d="M2852,-84.95C2852,-108.56 2852,-146.8 2852,-146.8 2852,-146.8 1591.8,-146.8 1591.8,-146.8"/>
<polygon fill="black" stroke="black" points="1591.8,-143.3 1581.8,-146.8 1591.8,-150.3 1591.8,-143.3"/>
</g>
</g>
</svg>
